<?xml version="1.0" encoding="utf-8"?>
<!-- Generator: Adobe Illustrator 27.7.0, SVG Export Plug-In . SVG Version: 6.00 Build 0)  -->
<svg version="1.1" id="Layer_1" xmlns="http://www.w3.org/2000/svg" xmlns:xlink="http://www.w3.org/1999/xlink" x="0px" y="0px"
	 viewBox="0 0 380 80" style="enable-background:new 0 0 380 80;" xml:space="preserve">
<style type="text/css">
	.st0{fill:#999999;}
	.st1{fill-rule:evenodd;clip-rule:evenodd;fill:#0AA8E0;}
</style>
<g>
	<g id="XMLID_120_">
		<g id="XMLID_125_">
			<path class="st0" d="M69,71.9H5.2L36.9,8.1L69,71.9z M8.2,70h57.7l-29-57.7L8.2,70z"/>
		</g>
		<g id="XMLID_122_">
			<polygon class="st0" points="66.9,71.7 37.1,49.9 7.3,71.6 6.2,70 36,48.4 36,10.2 37.8,10.2 37.8,48.2 68,70.2 			"/>
		</g>
		<g id="XMLID_121_">
			<polygon class="st1" points="36.8,58.7 41.7,31.9 44,36.4 57.6,63.5 16.7,63.5 30,36.2 32.1,31.8 36.8,58.7 			"/>
		</g>
	</g>
	<g id="XMLID_105_">
		<g id="XMLID_114_">
			<path class="st1" d="M84.8,47.4v18.4h11.1c3,0,5.4-1,7.2-3c1.5-1.8,2.3-4,2.2-6.5c-0.1-2.4-0.9-4.5-2.5-6.1
				c-1.7-1.9-4-2.8-6.8-2.8H84.8L84.8,47.4z M79.8,70.7V42.4h16c4.5,0,8.1,1.4,10.7,4.3c2.3,2.5,3.5,5.7,3.5,9.5
				c0,3.9-1.2,7.2-3.6,9.9c-2.7,3-6.2,4.5-10.6,4.5H79.8L79.8,70.7z M137.2,53.9v4.9h-16.2v-4.9H137.2L137.2,53.9z M119,65.8h19.5
				v4.9h-24.4V42.4h24.4v4.9H119V65.8L119,65.8z M142.7,70.7V42.4h4.9v23.4h19.5v4.9H142.7L142.7,70.7z"/>
			<path class="st0" d="M167.7,71.3h-25.5V41.9h6.1v23.4h19.5V71.3z M143.3,70.1h23.2v-3.8h-19.5V43h-3.8V70.1z M139,71.3h-25.6
				V41.9H139v6.1h-19.5v17.3H139V71.3z M114.6,70.1h23.3v-3.8h-19.5V46.8h19.5V43h-23.3V70.1z M95.8,71.3H79.3V41.9h16.5
				c4.7,0,8.4,1.5,11.2,4.5c2.4,2.6,3.6,6,3.6,9.9c0,4-1.3,7.4-3.8,10.3C104.1,69.7,100.4,71.3,95.8,71.3z M80.4,70.1h15.4
				c4.2,0,7.6-1.5,10.2-4.3c2.3-2.6,3.5-5.8,3.5-9.5c0-3.6-1.1-6.7-3.4-9.1c-2.5-2.7-6-4.1-10.3-4.1H80.4V70.1z M95.8,66.4H84.2
				V46.8h11.6c3,0,5.4,1,7.3,3c1.7,1.7,2.5,3.9,2.6,6.5c0.1,2.7-0.7,5-2.3,6.9C101.6,65.3,99,66.4,95.8,66.4z M85.3,65.2h10.5
				c2.9,0,5.1-0.9,6.7-2.8c1.5-1.7,2.1-3.7,2-6.1c-0.1-2.3-0.9-4.2-2.3-5.8c-1.6-1.8-3.7-2.6-6.4-2.6H85.3V65.2z M137.8,59.4h-17.3
				v-6.1h17.3V59.4z M121.6,58.3h15v-3.8h-15V58.3z"/>
		</g>
		<g id="XMLID_113_">
			<polygon class="st1" points="178.3,47.5 178.3,70.8 173.4,70.8 173.4,47.5 162.3,47.5 162.3,42.6 189.5,42.6 189.5,47.5 
				178.3,47.5 			"/>
			<path class="st0" d="M178.9,71.4h-6.1V48h-11.2V42H190V48h-11.1V71.4z M174,70.3h3.8V46.9h11.1v-3.8h-26.1v3.8H174V70.3z"/>
		</g>
		<g id="XMLID_112_">
			<path class="st1" d="M212.2,62.7h-13.4l3-4.9h7.5l-4.9-8.1l-12.7,20.9h-6.3L200.6,45c0.5-0.8,1.1-1.5,1.9-2
				c0.7-0.5,1.3-0.7,1.8-0.7c0.6-0.1,1.2,0.1,1.9,0.6c0.8,0.5,1.5,1.2,2,2.2l15,25.6h-6.4L212.2,62.7L212.2,62.7z"/>
			<path class="st0" d="M224.3,71.1h-7.7l-4.8-7.9h-14.1l3.7-6.1h6.8l-3.9-6.5l-12.4,20.4h-7.7l15.9-26.4c0.5-0.9,1.3-1.6,2.1-2.2
				c0.8-0.5,1.5-0.8,2.1-0.8c0.7-0.1,1.4,0.2,2.3,0.7c0.9,0.6,1.6,1.4,2.2,2.4L224.3,71.1z M217.3,70h5l-14.5-24.7
				c-0.5-0.8-1.1-1.5-1.9-2c-0.6-0.4-1.1-0.5-1.6-0.5c-0.4,0-0.9,0.2-1.5,0.6c-0.7,0.5-1.3,1.1-1.8,1.8L186.2,70h5l13.1-21.5
				l5.9,9.8h-8.2l-2.3,3.8h12.7L217.3,70z"/>
		</g>
		<g id="XMLID_106_">
			<path class="st1" d="M249.8,47.6v23.4h-4.9V47.6h-11.2v-4.9H261v4.9H249.8L249.8,47.6z M287.4,54.1v4.9h-16.2v-4.9H287.4
				L287.4,54.1z M269.2,66h19.5v4.9h-24.4V42.7h24.4v4.9h-19.5V66L269.2,66z M327.3,70.9H320l-7.9-7.9h-10.6v-4.9h13.2
				c2.3,0,4.1-0.6,5.3-1.7c1-1,1.5-2.3,1.5-3.8c-0.2-3.4-2.4-5-6.7-5h-16.1v23.4h-4.9V42.7H314c4.3,0,7.5,1,9.7,3.1
				c1.9,1.7,2.8,4,2.9,6.8c0.1,2.2-0.5,4.2-1.8,5.9c-1.4,1.9-3.4,3.2-6.1,3.9L327.3,70.9L327.3,70.9z M349.4,69.4L340,51.2L335.9,71
				h-5.5l6.3-26c0.4-1.7,1.4-2.7,2.9-2.8c1.1-0.1,2.2,0.8,3.2,2.8l9.5,18.5l9.4-18.5c1-1.9,2.1-2.9,3.2-2.8c1.5,0.1,2.5,1,2.9,2.8
				l6.3,26h-5.5l-4.1-19.8L355,69.4c-0.7,1.3-1.5,1.9-2.7,1.9C351.1,71.3,350.1,70.7,349.4,69.4L349.4,69.4z"/>
			<path class="st0" d="M352.3,71.9c-1.5,0-2.6-0.7-3.4-2.2l0,0l-8.7-16.8l-3.9,18.7h-6.7l6.5-26.7c0.6-2.5,2.2-3.1,3.5-3.2
				c1.4-0.1,2.6,0.9,3.7,3.1l9,17.5l8.9-17.5c1.1-2.2,2.4-3.2,3.7-3.1c1.8,0.2,3,1.3,3.5,3.2l6.5,26.7h-6.7l-3.9-18.7l-8.7,16.8
				C354.7,71.2,353.7,71.9,352.3,71.9z M350,69.2c0.6,1.1,1.3,1.6,2.4,1.6c0.9,0,1.6-0.5,2.2-1.6l10.2-19.7l4.3,20.9h4.4l-6.1-25.3
				c-0.4-1.5-1.1-2.2-2.4-2.3c-0.9-0.1-1.8,0.7-2.6,2.4l-9.9,19.5l-10-19.5c-0.9-1.7-1.8-2.6-2.6-2.5c-1.3,0.1-2.1,0.9-2.4,2.4
				l-6.1,25.2h4.3l4.3-20.9L350,69.2z M328.7,71.5h-8.9l-7.9-7.9h-11v-6.1h13.8c2.1,0,3.8-0.5,4.9-1.5c0.9-0.9,1.3-2,1.3-3.3
				c-0.2-3-2.2-4.5-6.2-4.5h-15.6v23.4h-6.1V42.1H314c4.4,0,7.8,1.1,10.1,3.3c2,1.8,3,4.3,3.1,7.2c0.1,2.4-0.6,4.5-1.9,6.3
				c-1.3,1.8-3.1,3-5.4,3.8L328.7,71.5z M320.3,70.4h5.6l-8.3-8.2l1-0.3c2.5-0.7,4.4-1.9,5.8-3.7c1.2-1.6,1.7-3.4,1.7-5.5
				c-0.1-2.7-1-4.8-2.7-6.4c-2.1-2-5.2-3-9.3-3h-19.7v27.1h3.8V47h16.7c5.8,0,7.2,3,7.3,5.6c0.1,1.7-0.5,3.1-1.6,4.2
				c-1.3,1.2-3.2,1.9-5.7,1.9h-12.6v3.8h10.3L320.3,70.4z M289.3,71.5h-25.6V42.1h25.6v6.1h-19.5v17.3h19.5V71.5z M264.8,70.4h23.3
				v-3.8h-19.5V47h19.5v-3.8h-23.3V70.4z M250.4,71.5h-6.1V48.1h-11.2v-6.1h28.4v6.1h-11.1V71.5z M245.5,70.4h3.8V47h11.1v-3.8
				h-26.1V47h11.2V70.4z M288,59.6h-17.3v-6.1H288V59.6z M271.8,58.5h15v-3.8h-15V58.5z"/>
		</g>
	</g>
</g>
</svg>
